<svg width="193" height="16" viewBox="0 0 193 16" fill="none" xmlns="http://www.w3.org/2000/svg">
<path d="M8.85573 1.3274V16H7.38961V1.3274H0V0H16.2454V1.3274H8.85573Z" fill="black"/>
<path d="M40.3128 16V8.22124H25.7583V16H24.2805V9.76562e-06H25.7583V6.89355H40.3128V0H41.7908V16H40.3128Z" fill="black"/>
<path d="M53.5857 9.15281V16H52.1078V8.83441e-06H60.1952C61.2626 -0.0159739 62.3287 0.0796103 63.3756 0.285155C64.1486 0.431242 64.8854 0.723871 65.5451 1.14678C66.0849 1.50354 66.5129 2.00171 66.7807 2.58516C67.0534 3.22213 67.1863 3.90863 67.1709 4.59973C67.2241 5.64037 66.8827 6.66336 66.2131 7.47003C65.5747 8.18837 64.5461 8.67945 63.1271 8.94324L68.6724 16H66.8161L61.5783 9.10618C61.3575 9.12192 61.133 9.13353 60.9046 9.14102C60.6758 9.14888 60.4394 9.15281 60.1952 9.15281H53.5857ZM65.6575 4.59973C65.6825 4.02467 65.5561 3.453 65.2906 2.94025C65.0142 2.4904 64.5935 2.14411 64.0949 1.95614C63.3997 1.69108 62.6674 1.53211 61.9234 1.48474C61.0278 1.40298 59.9291 1.36215 58.6275 1.36225H53.5857V7.79029H58.5802C59.882 7.79029 60.9826 7.75339 61.8821 7.6796C62.631 7.63829 63.3692 7.48522 64.0715 7.22562C64.5731 7.04395 64.9996 6.70409 65.2846 6.25893C65.556 5.74817 65.6847 5.17556 65.6575 4.59973Z" fill="black"/>
<path d="M77.1211 16V0H90.6587V1.36224H78.7289V6.8705H90.0557V8.19791H78.7289V14.6375H90.8361V16L77.1211 16Z" fill="black"/>
<path d="M115.122 16L112.888 11.7728H101.857L99.622 16H98.0021L106.503 0H108.241L116.742 16H115.122ZM107.378 1.40888L102.578 10.4454H112.166L107.378 1.40888Z" fill="black"/>
<path d="M142.506 7.98835C142.519 8.90861 142.41 9.82659 142.181 10.719C141.991 11.4557 141.681 12.1575 141.265 12.7976C140.88 13.378 140.394 13.8866 139.828 14.2998C139.253 14.7173 138.62 15.0506 137.948 15.2895C137.221 15.5474 136.468 15.7289 135.702 15.8312C134.858 15.9462 134.006 16.0026 133.154 16H124.771V5.59111e-06H133.13C134.379 -0.00890899 135.624 0.119904 136.843 0.384039C137.917 0.609636 138.93 1.05615 139.816 1.69431C140.676 2.3368 141.356 3.18429 141.791 4.15697C142.304 5.36914 142.548 6.67558 142.506 7.98835ZM140.993 7.99424C141.004 7.21729 140.916 6.44204 140.733 5.68637C140.581 5.06983 140.329 4.48147 139.987 3.94403C139.674 3.46165 139.273 3.04077 138.804 2.70286C138.321 2.35992 137.791 2.08706 137.23 1.89265C136.613 1.67909 135.974 1.5326 135.325 1.4558C134.599 1.36779 133.868 1.32491 133.136 1.32741H126.249V14.6726H133.136C134.205 14.6816 135.272 14.5781 136.319 14.3638C137.214 14.187 138.06 13.8211 138.798 13.2915C139.508 12.7575 140.065 12.0505 140.413 11.2402C140.832 10.2093 141.03 9.10406 140.993 7.99424Z" fill="black"/>
<path d="M151.653 16V0H165.19V1.36224H153.261V6.8705H164.587V8.19791H153.261V14.6375H165.368V16L151.653 16Z" fill="black"/>
<path d="M192.509 7.98835C192.522 8.90861 192.413 9.82659 192.184 10.719C191.994 11.4557 191.684 12.1575 191.268 12.7976C190.883 13.378 190.397 13.8866 189.831 14.2998C189.257 14.7173 188.623 15.0506 187.952 15.2895C187.224 15.5474 186.471 15.7289 185.705 15.8312C184.861 15.9462 184.009 16.0026 183.157 16H174.774V5.59111e-06H183.134C184.382 -0.00890899 185.627 0.119904 186.846 0.384039C187.92 0.609636 188.933 1.05615 189.82 1.69431C190.679 2.3368 191.359 3.18429 191.794 4.15697C192.308 5.36914 192.551 6.67558 192.509 7.98835ZM190.996 7.99424C191.007 7.21729 190.919 6.44204 190.736 5.68637C190.584 5.06983 190.332 4.48147 189.99 3.94403C189.677 3.46165 189.276 3.04077 188.807 2.70286C188.324 2.35991 187.794 2.08706 187.233 1.89265C186.616 1.67909 185.977 1.5326 185.328 1.4558C184.602 1.36779 183.871 1.32491 183.139 1.32741H176.252V14.6726H183.139C184.208 14.6816 185.275 14.5781 186.322 14.3638C187.217 14.187 188.063 13.8211 188.801 13.2915C189.511 12.7575 190.068 12.0505 190.416 11.2402C190.835 10.2093 191.033 9.10406 190.996 7.99424Z" fill="black"/>
</svg>
