<svg width="160" height="60" viewBox="0 0 160 60" fill="none" xmlns="http://www.w3.org/2000/svg">
<path d="M45.4143 24.664C45.4143 20.216 41.5423 19.096 37.9903 18.232V11.768C39.6863 11.96 41.4783 12.504 43.1743 13.496L44.4862 10.264C42.7583 9.144 40.3583 8.44 37.9903 8.312V4.76H35.3663V8.376C30.3743 8.856 28.0063 11.704 28.0063 14.968C28.0063 19.416 31.8143 20.568 35.3663 21.432V27.832C32.9343 27.608 30.5343 26.68 28.9663 25.4L27.5263 28.632C29.1903 30.072 32.2303 31.096 35.3663 31.288V34.84H37.9903V31.256C43.0143 30.744 45.4143 27.928 45.4143 24.664ZM32.1343 14.776C32.1343 13.368 33.0943 12.216 35.3663 11.864V17.56C33.5103 17.016 32.1343 16.312 32.1343 14.776ZM37.9903 27.768V22.104C39.9103 22.648 41.3183 23.384 41.3183 24.952C41.3183 26.328 40.3263 27.416 37.9903 27.768ZM53.6033 27.48L59.5873 21.784C62.6912 18.872 63.2993 16.888 63.2993 14.712C63.2993 10.744 60.1633 8.28 55.2993 8.28C51.6193 8.28 48.5153 9.656 46.7873 11.992L49.6993 14.232C50.9473 12.632 52.7713 11.896 54.9473 11.896C57.6993 11.896 59.1073 13.08 59.1073 15.128C59.1073 16.376 58.7233 17.688 56.5473 19.768L47.6513 28.216V31H64.1632V27.48H53.6033ZM75.8145 31.32C81.1585 31.32 85.1905 27.16 85.1905 19.8C85.1905 12.44 81.1585 8.28 75.8145 8.28C70.5025 8.28 66.4705 12.44 66.4705 19.8C66.4705 27.16 70.5025 31.32 75.8145 31.32ZM75.8145 27.704C72.7745 27.704 70.6625 25.208 70.6625 19.8C70.6625 14.392 72.7745 11.896 75.8145 11.896C78.8865 11.896 80.9985 14.392 80.9985 19.8C80.9985 25.208 78.8865 27.704 75.8145 27.704Z" fill="black"/>
<path d="M20.8602 54.06C22.9602 54.06 24.5302 52.55 24.5302 50.5C24.5302 48.45 22.9602 46.94 20.8602 46.94C18.7402 46.94 17.1802 48.46 17.1802 50.5C17.1802 52.54 18.7402 54.06 20.8602 54.06ZM20.8602 53.4C19.1702 53.4 17.9102 52.17 17.9102 50.5C17.9102 48.83 19.1702 47.6 20.8602 47.6C22.5402 47.6 23.7902 48.83 23.7902 50.5C23.7902 52.17 22.5402 53.4 20.8602 53.4ZM31.3088 47V52.68L26.7988 47H26.1888V54H26.9288V48.32L31.4288 54H32.0388V47H31.3088ZM40.0008 54.06C42.1008 54.06 43.6708 52.55 43.6708 50.5C43.6708 48.45 42.1008 46.94 40.0008 46.94C37.8808 46.94 36.3208 48.46 36.3208 50.5C36.3208 52.54 37.8808 54.06 40.0008 54.06ZM40.0008 53.4C38.3108 53.4 37.0508 52.17 37.0508 50.5C37.0508 48.83 38.3108 47.6 40.0008 47.6C41.6808 47.6 42.9308 48.83 42.9308 50.5C42.9308 52.17 41.6808 53.4 40.0008 53.4ZM50.9195 54L49.2095 51.6C50.2295 51.27 50.8095 50.5 50.8095 49.4C50.8095 47.9 49.7295 47 47.9495 47H45.3295V54H46.0695V51.78H47.9495C48.1495 51.78 48.3295 51.77 48.5095 51.75L50.1095 54H50.9195ZM47.9295 51.15H46.0695V47.64H47.9295C49.3295 47.64 50.0695 48.28 50.0695 49.4C50.0695 50.5 49.3295 51.15 47.9295 51.15ZM52.556 54H55.406C57.646 54 59.156 52.56 59.156 50.5C59.156 48.44 57.646 47 55.406 47H52.556V54ZM53.296 53.36V47.64H55.366C57.226 47.64 58.426 48.82 58.426 50.5C58.426 52.18 57.226 53.36 55.366 53.36H53.296ZM61.5577 53.36V50.76H65.1777V50.13H61.5577V47.64H65.6177V47H60.8177V54H65.7677V53.36H61.5577ZM73.0972 54L71.3872 51.6C72.4072 51.27 72.9872 50.5 72.9872 49.4C72.9872 47.9 71.9072 47 70.1272 47H67.5072V54H68.2472V51.78H70.1272C70.3272 51.78 70.5072 51.77 70.6872 51.75L72.2872 54H73.0972ZM70.1072 51.15H68.2472V47.64H70.1072C71.5072 47.64 72.2472 48.28 72.2472 49.4C72.2472 50.5 71.5072 51.15 70.1072 51.15ZM76.6638 54.06C78.4538 54.06 79.2738 53.18 79.2738 52.15C79.2738 49.6 74.9638 50.76 74.9638 48.84C74.9638 48.14 75.5338 47.57 76.8138 47.57C77.4338 47.57 78.1338 47.76 78.7337 48.15L78.9838 47.56C78.4238 47.17 77.6038 46.94 76.8138 46.94C75.0338 46.94 74.2338 47.83 74.2338 48.86C74.2338 51.45 78.5438 50.27 78.5438 52.19C78.5438 52.88 77.9738 53.43 76.6638 53.43C75.7438 53.43 74.8538 53.07 74.3538 52.58L74.0638 53.15C74.5838 53.69 75.6138 54.06 76.6638 54.06ZM88.7333 54H89.5133L86.3133 47H85.5833L82.3833 54H83.1533L83.9933 52.13H87.8933L88.7333 54ZM84.2633 51.53L85.9433 47.77L87.6233 51.53H84.2633ZM95.0813 50.39C95.7213 50.13 96.1513 49.6 96.1513 48.8C96.1513 47.66 95.2513 47 93.6913 47H90.6713V54H93.8913C95.6413 54 96.5213 53.32 96.5213 52.13C96.5213 51.18 95.9813 50.59 95.0813 50.39ZM93.6413 47.61C94.7613 47.61 95.4112 48.04 95.4112 48.88C95.4112 49.72 94.7613 50.15 93.6413 50.15H91.4113V47.61H93.6413ZM93.8813 53.39H91.4113V50.76H93.8813C95.1113 50.76 95.7812 51.16 95.7812 52.07C95.7812 52.99 95.1113 53.39 93.8813 53.39ZM101.27 54.06C103.37 54.06 104.94 52.55 104.94 50.5C104.94 48.45 103.37 46.94 101.27 46.94C99.1503 46.94 97.5903 48.46 97.5903 50.5C97.5903 52.54 99.1503 54.06 101.27 54.06ZM101.27 53.4C99.5803 53.4 98.3203 52.17 98.3203 50.5C98.3203 48.83 99.5803 47.6 101.27 47.6C102.95 47.6 104.2 48.83 104.2 50.5C104.2 52.17 102.95 53.4 101.27 53.4ZM111.454 47L108.754 53.08L106.074 47H105.274L108.374 54H109.104L112.204 47H111.454ZM113.96 53.36V50.76H117.58V50.13H113.96V47.64H118.02V47H113.22V54H118.17V53.36H113.96ZM127.067 52.15C127.067 50.81 125.877 50.49 124.747 50.22V47.57C125.327 47.6 125.967 47.79 126.527 48.15L126.777 47.56C126.247 47.19 125.497 46.97 124.747 46.94V45.8H124.247V46.95C122.717 47.07 122.027 47.9 122.027 48.86C122.027 50.18 123.147 50.52 124.247 50.79V53.42C123.407 53.37 122.607 53.03 122.147 52.58L121.857 53.15C122.347 53.65 123.267 54.01 124.247 54.06V55.2H124.747V54.05C126.337 53.96 127.067 53.12 127.067 52.15ZM122.757 48.84C122.757 48.21 123.217 47.68 124.247 47.59V50.09C123.427 49.88 122.757 49.6 122.757 48.84ZM124.747 53.42V50.92C125.607 51.13 126.337 51.4 126.337 52.19C126.337 52.83 125.847 53.34 124.747 53.42ZM127.531 47V47.64H129.181V54H129.901V47H127.531ZM133.415 49.87H132.515L132.755 47.64H135.955V47H132.125L131.765 50.51H133.255C135.035 50.51 135.595 51.07 135.595 51.97C135.595 52.82 134.965 53.4 133.775 53.4C132.875 53.4 132.075 53.06 131.625 52.59L131.275 53.16C131.815 53.71 132.775 54.06 133.785 54.06C135.495 54.06 136.325 53.13 136.325 51.94C136.325 50.7 135.525 49.87 133.415 49.87ZM140.029 54.06C141.649 54.06 142.829 52.73 142.829 50.5C142.829 48.27 141.649 46.94 140.029 46.94C138.409 46.94 137.239 48.27 137.239 50.5C137.239 52.73 138.409 54.06 140.029 54.06ZM140.029 53.4C138.809 53.4 137.969 52.37 137.969 50.5C137.969 48.63 138.809 47.6 140.029 47.6C141.249 47.6 142.089 48.63 142.089 50.5C142.089 52.37 141.249 53.4 140.029 53.4Z" fill="black"/>
<path d="M103.454 26.252C107.486 26.252 110.456 23.48 110.456 19.7C110.456 15.92 107.486 13.148 103.454 13.148C99.4218 13.148 96.4518 15.92 96.4518 19.7C96.4518 23.48 99.4218 26.252 103.454 26.252ZM103.454 23.3C101.546 23.3 100.052 21.878 100.052 19.7C100.052 17.522 101.546 16.1 103.454 16.1C105.362 16.1 106.856 17.522 106.856 19.7C106.856 21.878 105.362 23.3 103.454 23.3ZM122.205 16.154V13.4H112.323V26H115.887V21.68H121.449V18.926H115.887V16.154H122.205ZM133.753 16.154V13.4H123.871V26H127.435V21.68H132.997V18.926H127.435V16.154H133.753Z" fill="black"/>
</svg>
