<svg width="160" height="60" viewBox="0 0 160 60" fill="none" xmlns="http://www.w3.org/2000/svg">
<path d="M56.1018 24.664C56.1018 20.216 52.2298 19.096 48.6778 18.232V11.768C50.3738 11.96 52.1658 12.504 53.8618 13.496L55.1737 10.264C53.4458 9.144 51.0458 8.44 48.6778 8.312V4.76H46.0538V8.376C41.0618 8.856 38.6938 11.704 38.6938 14.968C38.6938 19.416 42.5018 20.568 46.0538 21.432V27.832C43.6218 27.608 41.2218 26.68 39.6538 25.4L38.2138 28.632C39.8778 30.072 42.9178 31.096 46.0538 31.288V34.84H48.6778V31.256C53.7018 30.744 56.1018 27.928 56.1018 24.664ZM42.8218 14.776C42.8218 13.368 43.7818 12.216 46.0538 11.864V17.56C44.1978 17.016 42.8218 16.312 42.8218 14.776ZM48.6778 27.768V22.104C50.5978 22.648 52.0058 23.384 52.0058 24.952C52.0058 26.328 51.0138 27.416 48.6778 27.768ZM65.6348 17.272H63.4908L63.9708 12.088H73.6028V8.6H60.4508L59.2988 20.792H64.7068C69.3468 20.792 70.7228 22.136 70.7228 24.28C70.7228 26.392 68.9628 27.704 65.9868 27.704C63.4588 27.704 61.0268 26.84 59.3948 25.496L57.6348 28.728C59.6828 30.36 62.8828 31.32 66.0508 31.32C72.0668 31.32 74.9148 28.056 74.9148 24.12C74.9148 20.152 72.2588 17.272 65.6348 17.272Z" fill="black"/>
<path d="M22.618 54.06C24.718 54.06 26.288 52.55 26.288 50.5C26.288 48.45 24.718 46.94 22.618 46.94C20.498 46.94 18.938 48.46 18.938 50.5C18.938 52.54 20.498 54.06 22.618 54.06ZM22.618 53.4C20.928 53.4 19.668 52.17 19.668 50.5C19.668 48.83 20.928 47.6 22.618 47.6C24.298 47.6 25.548 48.83 25.548 50.5C25.548 52.17 24.298 53.4 22.618 53.4ZM33.0666 47V52.68L28.5566 47H27.9466V54H28.6866V48.32L33.1866 54H33.7966V47H33.0666ZM41.7586 54.06C43.8586 54.06 45.4286 52.55 45.4286 50.5C45.4286 48.45 43.8586 46.94 41.7586 46.94C39.6386 46.94 38.0786 48.46 38.0786 50.5C38.0786 52.54 39.6386 54.06 41.7586 54.06ZM41.7586 53.4C40.0686 53.4 38.8086 52.17 38.8086 50.5C38.8086 48.83 40.0686 47.6 41.7586 47.6C43.4386 47.6 44.6886 48.83 44.6886 50.5C44.6886 52.17 43.4386 53.4 41.7586 53.4ZM52.6773 54L50.9673 51.6C51.9873 51.27 52.5673 50.5 52.5673 49.4C52.5673 47.9 51.4873 47 49.7073 47H47.0873V54H47.8273V51.78H49.7073C49.9073 51.78 50.0873 51.77 50.2673 51.75L51.8673 54H52.6773ZM49.6873 51.15H47.8273V47.64H49.6873C51.0873 47.64 51.8273 48.28 51.8273 49.4C51.8273 50.5 51.0873 51.15 49.6873 51.15ZM54.3138 54H57.1638C59.4038 54 60.9138 52.56 60.9138 50.5C60.9138 48.44 59.4038 47 57.1638 47H54.3138V54ZM55.0538 53.36V47.64H57.1238C58.9838 47.64 60.1838 48.82 60.1838 50.5C60.1838 52.18 58.9838 53.36 57.1238 53.36H55.0538ZM63.3155 53.36V50.76H66.9355V50.13H63.3155V47.64H67.3755V47H62.5755V54H67.5255V53.36H63.3155ZM74.855 54L73.145 51.6C74.165 51.27 74.745 50.5 74.745 49.4C74.745 47.9 73.665 47 71.885 47H69.265V54H70.005V51.78H71.885C72.085 51.78 72.265 51.77 72.445 51.75L74.045 54H74.855ZM71.865 51.15H70.005V47.64H71.865C73.265 47.64 74.005 48.28 74.005 49.4C74.005 50.5 73.265 51.15 71.865 51.15ZM78.4216 54.06C80.2116 54.06 81.0316 53.18 81.0316 52.15C81.0316 49.6 76.7216 50.76 76.7216 48.84C76.7216 48.14 77.2916 47.57 78.5716 47.57C79.1916 47.57 79.8916 47.76 80.4916 48.15L80.7416 47.56C80.1816 47.17 79.3616 46.94 78.5716 46.94C76.7916 46.94 75.9916 47.83 75.9916 48.86C75.9916 51.45 80.3016 50.27 80.3016 52.19C80.3016 52.88 79.7316 53.43 78.4216 53.43C77.5016 53.43 76.6116 53.07 76.1116 52.58L75.8216 53.15C76.3416 53.69 77.3716 54.06 78.4216 54.06ZM90.4911 54H91.2711L88.0711 47H87.3411L84.1411 54H84.9111L85.7511 52.13H89.6511L90.4911 54ZM86.0211 51.53L87.7011 47.77L89.3811 51.53H86.0211ZM96.8391 50.39C97.4791 50.13 97.9091 49.6 97.9091 48.8C97.9091 47.66 97.0091 47 95.4491 47H92.4291V54H95.6491C97.3991 54 98.2791 53.32 98.2791 52.13C98.2791 51.18 97.7391 50.59 96.8391 50.39ZM95.3991 47.61C96.5191 47.61 97.1691 48.04 97.1691 48.88C97.1691 49.72 96.5191 50.15 95.3991 50.15H93.1691V47.61H95.3991ZM95.6391 53.39H93.1691V50.76H95.6391C96.8691 50.76 97.5391 51.16 97.5391 52.07C97.5391 52.99 96.8691 53.39 95.6391 53.39ZM103.028 54.06C105.128 54.06 106.698 52.55 106.698 50.5C106.698 48.45 105.128 46.94 103.028 46.94C100.908 46.94 99.3481 48.46 99.3481 50.5C99.3481 52.54 100.908 54.06 103.028 54.06ZM103.028 53.4C101.338 53.4 100.078 52.17 100.078 50.5C100.078 48.83 101.338 47.6 103.028 47.6C104.708 47.6 105.958 48.83 105.958 50.5C105.958 52.17 104.708 53.4 103.028 53.4ZM113.212 47L110.512 53.08L107.832 47H107.032L110.132 54H110.862L113.962 47H113.212ZM115.718 53.36V50.76H119.338V50.13H115.718V47.64H119.778V47H114.978V54H119.928V53.36H115.718ZM128.825 52.15C128.825 50.81 127.635 50.49 126.505 50.22V47.57C127.085 47.6 127.725 47.79 128.285 48.15L128.535 47.56C128.005 47.19 127.255 46.97 126.505 46.94V45.8H126.005V46.95C124.475 47.07 123.785 47.9 123.785 48.86C123.785 50.18 124.905 50.52 126.005 50.79V53.42C125.165 53.37 124.365 53.03 123.905 52.58L123.615 53.15C124.105 53.65 125.025 54.01 126.005 54.06V55.2H126.505V54.05C128.095 53.96 128.825 53.12 128.825 52.15ZM124.515 48.84C124.515 48.21 124.975 47.68 126.005 47.59V50.09C125.185 49.88 124.515 49.6 124.515 48.84ZM126.505 53.42V50.92C127.365 51.13 128.095 51.4 128.095 52.19C128.095 52.83 127.605 53.34 126.505 53.42ZM131.657 49.87H130.757L130.997 47.64H134.197V47H130.367L130.007 50.51H131.497C133.277 50.51 133.837 51.07 133.837 51.97C133.837 52.82 133.207 53.4 132.017 53.4C131.117 53.4 130.317 53.06 129.867 52.59L129.517 53.16C130.057 53.71 131.017 54.06 132.027 54.06C133.737 54.06 134.567 53.13 134.567 51.94C134.567 50.7 133.767 49.87 131.657 49.87ZM138.271 54.06C139.891 54.06 141.071 52.73 141.071 50.5C141.071 48.27 139.891 46.94 138.271 46.94C136.651 46.94 135.481 48.27 135.481 50.5C135.481 52.73 136.651 54.06 138.271 54.06ZM138.271 53.4C137.051 53.4 136.211 52.37 136.211 50.5C136.211 48.63 137.051 47.6 138.271 47.6C139.491 47.6 140.331 48.63 140.331 50.5C140.331 52.37 139.491 53.4 138.271 53.4Z" fill="black"/>
<path d="M103.454 26.252C107.486 26.252 110.456 23.48 110.456 19.7C110.456 15.92 107.486 13.148 103.454 13.148C99.4218 13.148 96.4518 15.92 96.4518 19.7C96.4518 23.48 99.4218 26.252 103.454 26.252ZM103.454 23.3C101.546 23.3 100.052 21.878 100.052 19.7C100.052 17.522 101.546 16.1 103.454 16.1C105.362 16.1 106.856 17.522 106.856 19.7C106.856 21.878 105.362 23.3 103.454 23.3ZM122.205 16.154V13.4H112.323V26H115.887V21.68H121.449V18.926H115.887V16.154H122.205ZM133.753 16.154V13.4H123.871V26H127.435V21.68H132.997V18.926H127.435V16.154H133.753Z" fill="black"/>
</svg>
