<svg width="160" height="60" viewBox="0 0 160 60" fill="none" xmlns="http://www.w3.org/2000/svg">
<path d="M45.4455 24.664C45.4455 20.216 41.5735 19.096 38.0215 18.232V11.768C39.7175 11.96 41.5095 12.504 43.2055 13.496L44.5175 10.264C42.7895 9.144 40.3895 8.44 38.0215 8.312V4.76H35.3975V8.376C30.4055 8.856 28.0375 11.704 28.0375 14.968C28.0375 19.416 31.8455 20.568 35.3975 21.432V27.832C32.9655 27.608 30.5655 26.68 28.9975 25.4L27.5575 28.632C29.2215 30.072 32.2615 31.096 35.3975 31.288V34.84H38.0215V31.256C43.0455 30.744 45.4455 27.928 45.4455 24.664ZM32.1655 14.776C32.1655 13.368 33.1255 12.216 35.3975 11.864V17.56C33.5415 17.016 32.1655 16.312 32.1655 14.776ZM38.0215 27.768V22.104C39.9415 22.648 41.3495 23.384 41.3495 24.952C41.3495 26.328 40.3575 27.416 38.0215 27.768ZM57.3503 17.848L62.7903 11.384V8.6H47.5263V12.088H57.7023L52.6143 18.136V20.984H54.6623C58.0543 20.984 59.5263 22.296 59.5263 24.312C59.5263 26.392 57.7663 27.704 54.7903 27.704C52.2623 27.704 49.8303 26.84 48.2303 25.496L46.4383 28.728C48.5182 30.36 51.6863 31.32 54.8542 31.32C60.8703 31.32 63.7183 28.056 63.7183 24.28C63.7183 20.92 61.5743 18.392 57.3503 17.848ZM75.7833 31.32C81.1273 31.32 85.1593 27.16 85.1593 19.8C85.1593 12.44 81.1273 8.28 75.7833 8.28C70.4713 8.28 66.4393 12.44 66.4393 19.8C66.4393 27.16 70.4713 31.32 75.7833 31.32ZM75.7833 27.704C72.7433 27.704 70.6313 25.208 70.6313 19.8C70.6313 14.392 72.7433 11.896 75.7833 11.896C78.8553 11.896 80.9673 14.392 80.9673 19.8C80.9673 25.208 78.8553 27.704 75.7833 27.704Z" fill="black"/>
<path d="M19.3172 54.06C21.4172 54.06 22.9872 52.55 22.9872 50.5C22.9872 48.45 21.4172 46.94 19.3172 46.94C17.1972 46.94 15.6372 48.46 15.6372 50.5C15.6372 52.54 17.1972 54.06 19.3172 54.06ZM19.3172 53.4C17.6272 53.4 16.3672 52.17 16.3672 50.5C16.3672 48.83 17.6272 47.6 19.3172 47.6C20.9972 47.6 22.2472 48.83 22.2472 50.5C22.2472 52.17 20.9972 53.4 19.3172 53.4ZM29.7659 47V52.68L25.2559 47H24.6459V54H25.3859V48.32L29.8859 54H30.4959V47H29.7659ZM38.4578 54.06C40.5578 54.06 42.1278 52.55 42.1278 50.5C42.1278 48.45 40.5578 46.94 38.4578 46.94C36.3378 46.94 34.7778 48.46 34.7778 50.5C34.7778 52.54 36.3378 54.06 38.4578 54.06ZM38.4578 53.4C36.7678 53.4 35.5078 52.17 35.5078 50.5C35.5078 48.83 36.7678 47.6 38.4578 47.6C40.1378 47.6 41.3878 48.83 41.3878 50.5C41.3878 52.17 40.1378 53.4 38.4578 53.4ZM49.3765 54L47.6665 51.6C48.6865 51.27 49.2665 50.5 49.2665 49.4C49.2665 47.9 48.1865 47 46.4065 47H43.7865V54H44.5265V51.78H46.4065C46.6065 51.78 46.7865 51.77 46.9665 51.75L48.5665 54H49.3765ZM46.3865 51.15H44.5265V47.64H46.3865C47.7865 47.64 48.5265 48.28 48.5265 49.4C48.5265 50.5 47.7865 51.15 46.3865 51.15ZM51.013 54H53.863C56.103 54 57.613 52.56 57.613 50.5C57.613 48.44 56.103 47 53.863 47H51.013V54ZM51.753 53.36V47.64H53.823C55.683 47.64 56.883 48.82 56.883 50.5C56.883 52.18 55.683 53.36 53.823 53.36H51.753ZM60.0148 53.36V50.76H63.6348V50.13H60.0148V47.64H64.0748V47H59.2748V54H64.2248V53.36H60.0148ZM71.5542 54L69.8442 51.6C70.8642 51.27 71.4442 50.5 71.4442 49.4C71.4442 47.9 70.3642 47 68.5842 47H65.9642V54H66.7042V51.78H68.5842C68.7842 51.78 68.9642 51.77 69.1442 51.75L70.7442 54H71.5542ZM68.5642 51.15H66.7042V47.64H68.5642C69.9642 47.64 70.7042 48.28 70.7042 49.4C70.7042 50.5 69.9642 51.15 68.5642 51.15ZM75.1208 54.06C76.9108 54.06 77.7308 53.18 77.7308 52.15C77.7308 49.6 73.4208 50.76 73.4208 48.84C73.4208 48.14 73.9908 47.57 75.2708 47.57C75.8908 47.57 76.5908 47.76 77.1908 48.15L77.4408 47.56C76.8808 47.17 76.0608 46.94 75.2708 46.94C73.4908 46.94 72.6908 47.83 72.6908 48.86C72.6908 51.45 77.0008 50.27 77.0008 52.19C77.0008 52.88 76.4308 53.43 75.1208 53.43C74.2008 53.43 73.3108 53.07 72.8108 52.58L72.5208 53.15C73.0408 53.69 74.0708 54.06 75.1208 54.06ZM87.1903 54H87.9703L84.7703 47H84.0403L80.8403 54H81.6103L82.4503 52.13H86.3503L87.1903 54ZM82.7203 51.53L84.4003 47.77L86.0803 51.53H82.7203ZM93.5383 50.39C94.1783 50.13 94.6083 49.6 94.6083 48.8C94.6083 47.66 93.7083 47 92.1483 47H89.1283V54H92.3483C94.0983 54 94.9783 53.32 94.9783 52.13C94.9783 51.18 94.4383 50.59 93.5383 50.39ZM92.0983 47.61C93.2183 47.61 93.8683 48.04 93.8683 48.88C93.8683 49.72 93.2183 50.15 92.0983 50.15H89.8683V47.61H92.0983ZM92.3383 53.39H89.8683V50.76H92.3383C93.5683 50.76 94.2383 51.16 94.2383 52.07C94.2383 52.99 93.5683 53.39 92.3383 53.39ZM99.7273 54.06C101.827 54.06 103.397 52.55 103.397 50.5C103.397 48.45 101.827 46.94 99.7273 46.94C97.6073 46.94 96.0473 48.46 96.0473 50.5C96.0473 52.54 97.6073 54.06 99.7273 54.06ZM99.7273 53.4C98.0373 53.4 96.7773 52.17 96.7773 50.5C96.7773 48.83 98.0373 47.6 99.7273 47.6C101.407 47.6 102.657 48.83 102.657 50.5C102.657 52.17 101.407 53.4 99.7273 53.4ZM109.911 47L107.211 53.08L104.531 47H103.731L106.831 54H107.561L110.661 47H109.911ZM112.417 53.36V50.76H116.037V50.13H112.417V47.64H116.477V47H111.677V54H116.627V53.36H112.417ZM125.524 52.15C125.524 50.81 124.334 50.49 123.204 50.22V47.57C123.784 47.6 124.424 47.79 124.984 48.15L125.234 47.56C124.704 47.19 123.954 46.97 123.204 46.94V45.8H122.704V46.95C121.174 47.07 120.484 47.9 120.484 48.86C120.484 50.18 121.604 50.52 122.704 50.79V53.42C121.864 53.37 121.064 53.03 120.604 52.58L120.314 53.15C120.804 53.65 121.724 54.01 122.704 54.06V55.2H123.204V54.05C124.794 53.96 125.524 53.12 125.524 52.15ZM121.214 48.84C121.214 48.21 121.674 47.68 122.704 47.59V50.09C121.884 49.88 121.214 49.6 121.214 48.84ZM123.204 53.42V50.92C124.064 51.13 124.794 51.4 124.794 52.19C124.794 52.83 124.304 53.34 123.204 53.42ZM127.446 53.36L129.826 51.02C130.766 50.1 130.976 49.5 130.976 48.83C130.976 47.66 130.076 46.94 128.656 46.94C127.586 46.94 126.716 47.3 126.176 47.94L126.686 48.38C127.146 47.85 127.776 47.6 128.596 47.6C129.666 47.6 130.236 48.1 130.236 48.91C130.236 49.39 130.086 49.86 129.296 50.64L126.386 53.49V54H131.296V53.36H127.446ZM134.951 54.06C136.571 54.06 137.751 52.73 137.751 50.5C137.751 48.27 136.571 46.94 134.951 46.94C133.331 46.94 132.161 48.27 132.161 50.5C132.161 52.73 133.331 54.06 134.951 54.06ZM134.951 53.4C133.731 53.4 132.891 52.37 132.891 50.5C132.891 48.63 133.731 47.6 134.951 47.6C136.171 47.6 137.011 48.63 137.011 50.5C137.011 52.37 136.171 53.4 134.951 53.4ZM141.572 54.06C143.192 54.06 144.372 52.73 144.372 50.5C144.372 48.27 143.192 46.94 141.572 46.94C139.952 46.94 138.782 48.27 138.782 50.5C138.782 52.73 139.952 54.06 141.572 54.06ZM141.572 53.4C140.352 53.4 139.512 52.37 139.512 50.5C139.512 48.63 140.352 47.6 141.572 47.6C142.792 47.6 143.632 48.63 143.632 50.5C143.632 52.37 142.792 53.4 141.572 53.4Z" fill="black"/>
<path d="M103.454 26.252C107.486 26.252 110.456 23.48 110.456 19.7C110.456 15.92 107.486 13.148 103.454 13.148C99.4218 13.148 96.4518 15.92 96.4518 19.7C96.4518 23.48 99.4218 26.252 103.454 26.252ZM103.454 23.3C101.546 23.3 100.052 21.878 100.052 19.7C100.052 17.522 101.546 16.1 103.454 16.1C105.362 16.1 106.856 17.522 106.856 19.7C106.856 21.878 105.362 23.3 103.454 23.3ZM122.205 16.154V13.4H112.323V26H115.887V21.68H121.449V18.926H115.887V16.154H122.205ZM133.753 16.154V13.4H123.871V26H127.435V21.68H132.997V18.926H127.435V16.154H133.753Z" fill="black"/>
</svg>
