<svg width="160" height="60" viewBox="0 0 160 60" fill="none" xmlns="http://www.w3.org/2000/svg">
<path d="M50.1643 24.664C50.1643 20.216 46.2923 19.096 42.7403 18.232V11.768C44.4363 11.96 46.2283 12.504 47.9243 13.496L49.2362 10.264C47.5083 9.144 45.1083 8.44 42.7403 8.312V4.76H40.1163V8.376C35.1243 8.856 32.7563 11.704 32.7563 14.968C32.7563 19.416 36.5643 20.568 40.1163 21.432V27.832C37.6843 27.608 35.2843 26.68 33.7163 25.4L32.2763 28.632C33.9403 30.072 36.9803 31.096 40.1163 31.288V34.84H42.7403V31.256C47.7643 30.744 50.1643 27.928 50.1643 24.664ZM36.8843 14.776C36.8843 13.368 37.8443 12.216 40.1163 11.864V17.56C38.2603 17.016 36.8843 16.312 36.8843 14.776ZM42.7403 27.768V22.104C44.6603 22.648 46.0683 23.384 46.0683 24.952C46.0683 26.328 45.0763 27.416 42.7403 27.768ZM51.2248 8.6V12.088H55.9608V31H60.1208V8.6H51.2248ZM71.5723 17.272H69.4283L69.9083 12.088H79.5403V8.6H66.3883L65.2363 20.792H70.6443C75.2843 20.792 76.6603 22.136 76.6603 24.28C76.6603 26.392 74.9003 27.704 71.9243 27.704C69.3963 27.704 66.9643 26.84 65.3323 25.496L63.5723 28.728C65.6203 30.36 68.8203 31.32 71.9883 31.32C78.0043 31.32 80.8523 28.056 80.8523 24.12C80.8523 20.152 78.1963 17.272 71.5723 17.272Z" fill="black"/>
<path d="M23.1258 54.06C25.2258 54.06 26.7958 52.55 26.7958 50.5C26.7958 48.45 25.2258 46.94 23.1258 46.94C21.0058 46.94 19.4458 48.46 19.4458 50.5C19.4458 52.54 21.0058 54.06 23.1258 54.06ZM23.1258 53.4C21.4358 53.4 20.1758 52.17 20.1758 50.5C20.1758 48.83 21.4358 47.6 23.1258 47.6C24.8058 47.6 26.0558 48.83 26.0558 50.5C26.0558 52.17 24.8058 53.4 23.1258 53.4ZM33.5745 47V52.68L29.0645 47H28.4545V54H29.1945V48.32L33.6945 54H34.3045V47H33.5745ZM42.2664 54.06C44.3664 54.06 45.9364 52.55 45.9364 50.5C45.9364 48.45 44.3664 46.94 42.2664 46.94C40.1464 46.94 38.5864 48.46 38.5864 50.5C38.5864 52.54 40.1464 54.06 42.2664 54.06ZM42.2664 53.4C40.5764 53.4 39.3164 52.17 39.3164 50.5C39.3164 48.83 40.5764 47.6 42.2664 47.6C43.9464 47.6 45.1964 48.83 45.1964 50.5C45.1964 52.17 43.9464 53.4 42.2664 53.4ZM53.1851 54L51.4751 51.6C52.4951 51.27 53.0751 50.5 53.0751 49.4C53.0751 47.9 51.9951 47 50.2151 47H47.5951V54H48.3351V51.78H50.2151C50.4151 51.78 50.5951 51.77 50.7751 51.75L52.3751 54H53.1851ZM50.1951 51.15H48.3351V47.64H50.1951C51.5951 47.64 52.3351 48.28 52.3351 49.4C52.3351 50.5 51.5951 51.15 50.1951 51.15ZM54.8216 54H57.6716C59.9116 54 61.4216 52.56 61.4216 50.5C61.4216 48.44 59.9116 47 57.6716 47H54.8216V54ZM55.5616 53.36V47.64H57.6316C59.4916 47.64 60.6916 48.82 60.6916 50.5C60.6916 52.18 59.4916 53.36 57.6316 53.36H55.5616ZM63.8234 53.36V50.76H67.4434V50.13H63.8234V47.64H67.8834V47H63.0834V54H68.0334V53.36H63.8234ZM75.3628 54L73.6528 51.6C74.6728 51.27 75.2528 50.5 75.2528 49.4C75.2528 47.9 74.1728 47 72.3928 47H69.7728V54H70.5128V51.78H72.3928C72.5928 51.78 72.7728 51.77 72.9528 51.75L74.5528 54H75.3628ZM72.3728 51.15H70.5128V47.64H72.3728C73.7728 47.64 74.5128 48.28 74.5128 49.4C74.5128 50.5 73.7728 51.15 72.3728 51.15ZM78.9294 54.06C80.7194 54.06 81.5394 53.18 81.5394 52.15C81.5394 49.6 77.2294 50.76 77.2294 48.84C77.2294 48.14 77.7994 47.57 79.0794 47.57C79.6994 47.57 80.3994 47.76 80.9994 48.15L81.2494 47.56C80.6894 47.17 79.8694 46.94 79.0794 46.94C77.2994 46.94 76.4994 47.83 76.4994 48.86C76.4994 51.45 80.8094 50.27 80.8094 52.19C80.8094 52.88 80.2394 53.43 78.9294 53.43C78.0094 53.43 77.1194 53.07 76.6194 52.58L76.3294 53.15C76.8494 53.69 77.8794 54.06 78.9294 54.06ZM90.9989 54H91.7789L88.5789 47H87.8489L84.6489 54H85.4189L86.2589 52.13H90.1589L90.9989 54ZM86.5289 51.53L88.2089 47.77L89.8889 51.53H86.5289ZM97.3469 50.39C97.9869 50.13 98.4169 49.6 98.4169 48.8C98.4169 47.66 97.5169 47 95.9569 47H92.9369V54H96.1569C97.9069 54 98.7869 53.32 98.7869 52.13C98.7869 51.18 98.2469 50.59 97.3469 50.39ZM95.9069 47.61C97.0269 47.61 97.6769 48.04 97.6769 48.88C97.6769 49.72 97.0269 50.15 95.9069 50.15H93.6769V47.61H95.9069ZM96.1469 53.39H93.6769V50.76H96.1469C97.3769 50.76 98.0469 51.16 98.0469 52.07C98.0469 52.99 97.3769 53.39 96.1469 53.39ZM103.536 54.06C105.636 54.06 107.206 52.55 107.206 50.5C107.206 48.45 105.636 46.94 103.536 46.94C101.416 46.94 99.8559 48.46 99.8559 50.5C99.8559 52.54 101.416 54.06 103.536 54.06ZM103.536 53.4C101.846 53.4 100.586 52.17 100.586 50.5C100.586 48.83 101.846 47.6 103.536 47.6C105.216 47.6 106.466 48.83 106.466 50.5C106.466 52.17 105.216 53.4 103.536 53.4ZM113.72 47L111.02 53.08L108.34 47H107.54L110.64 54H111.37L114.47 47H113.72ZM116.226 53.36V50.76H119.846V50.13H116.226V47.64H120.286V47H115.486V54H120.436V53.36H116.226ZM129.332 52.15C129.332 50.81 128.142 50.49 127.012 50.22V47.57C127.592 47.6 128.232 47.79 128.792 48.15L129.042 47.56C128.512 47.19 127.762 46.97 127.012 46.94V45.8H126.512V46.95C124.982 47.07 124.292 47.9 124.292 48.86C124.292 50.18 125.412 50.52 126.512 50.79V53.42C125.672 53.37 124.872 53.03 124.412 52.58L124.122 53.15C124.612 53.65 125.532 54.01 126.512 54.06V55.2H127.012V54.05C128.602 53.96 129.332 53.12 129.332 52.15ZM125.022 48.84C125.022 48.21 125.482 47.68 126.512 47.59V50.09C125.692 49.88 125.022 49.6 125.022 48.84ZM127.012 53.42V50.92C127.872 51.13 128.602 51.4 128.602 52.19C128.602 52.83 128.112 53.34 127.012 53.42ZM130.027 47V48.95H130.737V47.64H134.337L131.457 54H132.237L135.167 47.51V47H130.027ZM137.77 49.87H136.87L137.11 47.64H140.31V47H136.48L136.12 50.51H137.61C139.39 50.51 139.95 51.07 139.95 51.97C139.95 52.82 139.32 53.4 138.13 53.4C137.23 53.4 136.43 53.06 135.98 52.59L135.63 53.16C136.17 53.71 137.13 54.06 138.14 54.06C139.85 54.06 140.68 53.13 140.68 51.94C140.68 50.7 139.88 49.87 137.77 49.87Z" fill="black"/>
<path d="M103.454 26.252C107.486 26.252 110.456 23.48 110.456 19.7C110.456 15.92 107.486 13.148 103.454 13.148C99.4218 13.148 96.4518 15.92 96.4518 19.7C96.4518 23.48 99.4218 26.252 103.454 26.252ZM103.454 23.3C101.546 23.3 100.052 21.878 100.052 19.7C100.052 17.522 101.546 16.1 103.454 16.1C105.362 16.1 106.856 17.522 106.856 19.7C106.856 21.878 105.362 23.3 103.454 23.3ZM122.205 16.154V13.4H112.323V26H115.887V21.68H121.449V18.926H115.887V16.154H122.205ZM133.753 16.154V13.4H123.871V26H127.435V21.68H132.997V18.926H127.435V16.154H133.753Z" fill="black"/>
</svg>
